<svg width="69" height="40" viewBox="0 0 69 40" fill="none" xmlns="http://www.w3.org/2000/svg">
<path d="M63.9999 9.39188C61.3689 9.39188 59.1858 7.37669 59.1858 4.80172C59.1858 2.17078 61.3689 0.0996094 63.9999 0.0996094C66.6308 0.0996094 68.8139 2.17078 68.8139 4.80172C68.8139 7.37669 66.6308 9.39188 63.9999 9.39188ZM67.8623 39.6757H60.1374V13.3663H67.8623V39.6757Z" fill="black"/>
<path d="M63.9996 9.39188C61.3687 9.39188 59.1855 7.37669 59.1855 4.80172C59.1855 2.17078 61.3687 0.0996094 63.9996 0.0996094C66.6306 0.0996094 68.8137 2.17078 68.8137 4.80172C68.8137 7.37669 66.6306 9.39188 63.9996 9.39188Z" fill="#6A00FF"/>
<path d="M47.2765 39.284H39.9435L29.9795 12.9746H38.0403L42.1826 25.4016C42.6864 26.969 43.2462 28.7603 43.5261 29.9918H43.638C43.9179 28.7603 44.4777 26.969 44.9815 25.4016L49.1238 12.9746H57.2405L47.2765 39.284Z" fill="black"/>
<path d="M14.1623 12.3594C22.447 12.3594 28.3246 17.7332 28.3246 26.1858V39.2846H21.4954L21.0476 35.3661C19.4802 38.165 16.6253 39.9003 12.5949 39.9003C5.76569 39.9003 0 34.5265 0 26.1298C0 18.293 5.93362 12.3594 14.1623 12.3594ZM14.1623 33.239C17.353 33.239 20.7117 31.1118 20.7117 26.1298C20.7117 21.9315 17.9688 19.0207 14.1623 19.0207C10.4118 19.0207 7.61294 21.9315 7.61294 26.1298C7.61294 30.3282 10.4118 33.239 14.1623 33.239Z" fill="black"/>
</svg>
